<svg width="28" height="28" viewBox="0 0 28 28" fill="none" xmlns="http://www.w3.org/2000/svg">
<path d="M9.84569 25.0985C9.51762 24.7703 9.33331 24.3253 9.33331 23.8612C9.33331 23.3972 9.51762 22.9522 9.84569 22.624L18.5082 13.9615L9.84569 5.299C9.52691 4.96894 9.35052 4.52689 9.35451 4.06804C9.3585 3.6092 9.54254 3.17028 9.86701 2.84581C10.1915 2.52135 10.6304 2.33731 11.0892 2.33332C11.5481 2.32933 11.9901 2.50572 12.3202 2.8245L22.2199 12.7242C22.548 13.0524 22.7323 13.4975 22.7323 13.9615C22.7323 14.4255 22.548 14.8706 22.2199 15.1987L12.3202 25.0985C11.992 25.4266 11.547 25.6109 11.0829 25.6109C10.6189 25.6109 10.1739 25.4266 9.84569 25.0985Z" fill="#1A202C"/>
</svg>
