<svg width="52" height="52" viewBox="0 0 52 52" fill="none" xmlns="http://www.w3.org/2000/svg">
<rect width="52" height="52" rx="26" fill="#11C2ED" fill-opacity="0.8"/>
<path d="M21.8457 37.0986C21.5176 36.7704 21.3333 36.3254 21.3333 35.8614C21.3333 35.3973 21.5176 34.9523 21.8457 34.6241L30.5082 25.9616L21.8457 17.2991C21.5269 16.9691 21.3505 16.527 21.3545 16.0682C21.3585 15.6093 21.5425 15.1704 21.867 14.8459C22.1915 14.5215 22.6304 14.3374 23.0892 14.3334C23.5481 14.3295 23.9901 14.5058 24.3202 14.8246L34.2199 24.7244C34.548 25.0525 34.7323 25.4976 34.7323 25.9616C34.7323 26.4257 34.548 26.8707 34.2199 27.1989L24.3202 37.0986C23.992 37.4267 23.547 37.611 23.0829 37.611C22.6189 37.611 22.1739 37.4267 21.8457 37.0986Z" fill="white"/>
</svg>
