<svg width="52" height="52" viewBox="0 0 52 52" fill="none" xmlns="http://www.w3.org/2000/svg">
<rect width="52" height="52" rx="26" fill="#11C2ED" fill-opacity="0.8"/>
<path d="M30.7199 14.863C31.048 15.1911 31.2323 15.6362 31.2323 16.1002C31.2323 16.5642 31.048 17.0093 30.7199 17.3375L22.0574 26L30.7199 34.6625C31.0387 34.9925 31.2151 35.4346 31.2111 35.8934C31.2071 36.3523 31.0231 36.7912 30.6986 37.1156C30.3742 37.4401 29.9352 37.6242 29.4764 37.6281C29.0175 37.6321 28.5755 37.4557 28.2454 37.137L18.3457 27.2372C18.0176 26.909 17.8333 26.464 17.8333 26C17.8333 25.5359 18.0176 25.0909 18.3457 24.7627L28.2454 14.863C28.5736 14.5349 29.0187 14.3506 29.4827 14.3506C29.9467 14.3506 30.3918 14.5349 30.7199 14.863Z" fill="white"/>
</svg>
