<svg width="20" height="20" viewBox="0 0 20 20" fill="none" xmlns="http://www.w3.org/2000/svg">
<path fill-rule="evenodd" clip-rule="evenodd" d="M12.6988 13.4C12.6066 13.4858 12.5328 13.5893 12.4815 13.7043C12.4303 13.8193 12.4027 13.9434 12.4005 14.0693C12.3983 14.1952 12.4214 14.3202 12.4686 14.437C12.5157 14.5537 12.5859 14.6597 12.675 14.7488C12.764 14.8378 12.87 14.908 12.9868 14.9551C13.1035 15.0023 13.2285 15.0254 13.3544 15.0232C13.4803 15.021 13.6044 14.9934 13.7194 14.9422C13.8344 14.8909 13.9379 14.8171 14.0238 14.725L18.0863 10.6625L18.75 9.99995L18.0875 9.33745L14.025 5.27495C13.8483 5.10409 13.6115 5.00949 13.3657 5.01151C13.1199 5.01353 12.8847 5.11201 12.7108 5.28575C12.5369 5.45949 12.4382 5.69458 12.4359 5.94039C12.4337 6.1862 12.5281 6.42306 12.6988 6.59995L15.1612 9.06245H2.1875C1.93886 9.06245 1.7004 9.16122 1.52459 9.33704C1.34877 9.51286 1.25 9.75131 1.25 9.99995C1.25 10.2486 1.34877 10.487 1.52459 10.6629C1.7004 10.8387 1.93886 10.9375 2.1875 10.9375H15.1612L12.6988 13.4Z" fill="#1A202C"/>
</svg>
