<svg width="601" height="296" viewBox="0 0 601 296" fill="none" xmlns="http://www.w3.org/2000/svg">
<circle cx="9.57509" cy="253.488" r="8.5" transform="rotate(7.80119 9.57509 253.488)" fill="#11C2ED"/>
<path d="M9.66323 256.528L92.5536 169.096C94.1672 167.394 96.6246 166.789 98.8444 167.546L205.304 203.851C207.545 204.615 210.025 203.99 211.636 202.256L320.869 84.6792" stroke="#11C2ED" stroke-width="4" stroke-linecap="round"/>
<path d="M320.306 85.1067L336.768 67.3249C339.094 64.8133 343.045 64.7526 345.447 67.1915L466.272 189.91C468.734 192.41 472.806 192.274 475.095 189.615L572.275 76.7304" stroke="#11C2ED" stroke-width="4" stroke-linecap="round" stroke-dasharray="12 12"/>
<path d="M577 29.8571C581.433 29.8571 585.684 31.6181 588.819 34.7526C591.953 37.8872 593.714 42.1385 593.714 46.5714C593.714 53.6343 588.751 61.3314 578.954 69.7451C578.41 70.2131 577.715 70.4701 576.997 70.4695C576.279 70.4689 575.585 70.2106 575.041 69.7417L574.393 69.1794C565.029 60.9851 560.286 53.4766 560.286 46.5714C560.286 42.1385 562.047 37.8872 565.181 34.7526C568.316 31.6181 572.567 29.8571 577 29.8571ZM577 40.1429C575.295 40.1429 573.66 40.8202 572.454 42.0257C571.249 43.2313 570.571 44.8665 570.571 46.5714C570.571 48.2764 571.249 49.9115 572.454 51.1171C573.66 52.3227 575.295 53 577 53C578.705 53 580.34 52.3227 581.546 51.1171C582.751 49.9115 583.429 48.2764 583.429 46.5714C583.429 44.8665 582.751 43.2313 581.546 42.0257C580.34 40.8202 578.705 40.1429 577 40.1429Z" fill="#11C2ED"/>
<circle opacity="0.3" cx="340.011" cy="69.8418" r="62" transform="rotate(7.80119 340.011 69.8418)" fill="#FDB447"/>
<g opacity="0.8" filter="url(#filter0_f_15_291)">
<circle cx="340.36" cy="70.0474" r="32" transform="rotate(7.80119 340.36 70.0474)" fill="#FCA119"/>
</g>
<circle cx="339.26" cy="69.5178" r="12" transform="rotate(7.80119 339.26 69.5178)" fill="#FDBD5E"/>
<defs>
<filter id="filter0_f_15_291" x="288.356" y="18.0435" width="104.008" height="104.008" filterUnits="userSpaceOnUse" color-interpolation-filters="sRGB">
<feFlood flood-opacity="0" result="BackgroundImageFix"/>
<feBlend mode="normal" in="SourceGraphic" in2="BackgroundImageFix" result="shape"/>
<feGaussianBlur stdDeviation="10" result="effect1_foregroundBlur_15_291"/>
</filter>
</defs>
</svg>
