<svg width="190" height="40" viewBox="0 0 190 40" fill="none" xmlns="http://www.w3.org/2000/svg">
<path d="M7.79261 4.00572C7.79261 4.00572 21.8395 14.5721 24.1647 16.2136C26.4886 17.8551 27.7024 20.214 25.883 22.0609C24.0636 23.9077 12.238 32.3179 12.238 32.3179L20.2211 19.8033L10.1165 10.4677L16.5849 19.3926C16.5849 19.3926 8.29836 30.0617 6.98471 31.7032C5.67105 33.3447 4.22208 33.618 2.60497 32.4899C0.987859 31.3618 1.79707 28.7975 2.40267 27.6348C3.00958 26.472 6.00734 19.6673 6.00734 19.6673C6.00734 19.6673 2.40267 12.0425 2.06637 11.3585C1.73008 10.6744 8.39951 19.6673 8.39951 19.6673L5.46743 28.2828L12.3733 19.4953C12.3733 19.4953 4.72653 8.79287 3.61517 7.04869C2.50382 5.30452 3.34587 4.00572 3.81748 3.49234C4.28908 2.97895 6.55645 3.0763 7.79261 4.00572Z" fill="#11C2ED"/>
<path d="M47.7186 25.1105C46.8831 25.5332 45.0479 25.9946 42.7109 25.9946C36.5906 25.9946 32.8611 22.0929 32.8611 16.1283C32.8611 9.68897 37.2921 5.79791 43.1904 5.79791C45.5104 5.79791 47.1511 6.27529 47.8631 6.66333L47.0972 9.51562C46.1987 9.09958 44.914 8.74887 43.3349 8.74887C39.4032 8.74887 36.5709 11.2425 36.5709 15.9509C36.5709 20.2674 39.0498 23.0023 43.289 23.0023C44.7143 23.0023 46.204 22.7143 47.134 22.2929L47.7186 25.1105Z" fill="#6D787B"/>
<path d="M50.4891 16.0923C50.4891 14.1974 50.4497 12.8039 50.3748 11.5438H53.4264L53.5578 14.2321H53.6563C54.3434 12.2399 55.9684 11.2238 57.4712 11.2238C57.8154 11.2238 58.0164 11.2371 58.2988 11.3011V14.6695C57.998 14.6055 57.6906 14.5681 57.265 14.5681C55.5861 14.5681 54.4209 15.6536 54.1056 17.2751C54.0465 17.5911 54.015 17.9685 54.015 18.3538V25.6906H50.4878V16.0923H50.4891Z" fill="#6D787B"/>
<path d="M73.666 18.4778C73.666 23.6784 70.0705 26.0106 66.5066 26.0106C62.5748 26.0106 59.5323 23.2557 59.5323 18.7219C59.5323 14.0814 62.5433 11.2238 66.7443 11.2238C70.8902 11.2238 73.666 14.1894 73.666 18.4778ZM63.1541 18.6312C63.1541 21.3541 64.4927 23.4103 66.6195 23.4103C68.6399 23.4103 70.0429 21.4301 70.0429 18.5832C70.0429 16.3603 69.0734 13.8214 66.6419 13.8214C64.1682 13.8227 63.1541 16.2723 63.1541 18.6312Z" fill="#6D787B"/>
<path d="M76.3997 22.4009C77.1774 22.8903 78.6947 23.433 79.9558 23.433C81.5059 23.433 82.1995 22.7729 82.1995 21.8448C82.1995 20.8861 81.6241 20.4007 79.9111 19.782C77.1827 18.8339 76.0463 17.3271 76.0595 15.6509C76.0595 13.1626 78.097 11.2238 81.3483 11.2238C82.8839 11.2238 84.2278 11.6132 85.0449 12.0692L84.346 14.5801C83.7601 14.2428 82.6317 13.7667 81.3982 13.7667C80.1449 13.7667 79.4461 14.3948 79.4461 15.2655C79.4461 16.1629 80.1187 16.595 81.879 17.2471C84.4156 18.1565 85.5861 19.4699 85.5979 21.5555C85.5979 24.1357 83.6183 25.9973 79.9374 25.9973C78.2507 25.9973 76.7176 25.5879 75.6917 25.0065L76.3997 22.4009Z" fill="#6D787B"/>
<path d="M88.3369 22.4009C89.1146 22.8903 90.6318 23.433 91.893 23.433C93.4431 23.433 94.1354 22.7729 94.1354 21.8448C94.1354 20.8861 93.56 20.4007 91.847 19.782C89.1198 18.8339 87.9822 17.3271 87.9953 15.6509C87.9953 13.1626 90.0328 11.2238 93.2841 11.2238C94.8198 11.2238 96.1637 11.6132 96.9807 12.0692L96.2819 14.5801C95.696 14.2428 94.5676 13.7667 93.334 13.7667C92.0808 13.7667 91.3819 14.3948 91.3819 15.2655C91.3819 16.1629 92.0545 16.595 93.8148 17.2471C96.3515 18.1565 97.522 19.4699 97.5338 21.5555C97.5338 24.1357 95.5541 25.9973 91.8732 25.9973C90.1865 25.9973 88.6535 25.5879 87.6275 25.0065L88.3369 22.4009Z" fill="#6D787B"/>
<path d="M101.575 6.37264C103.146 6.11261 105.111 5.95126 107.197 5.95126C110.818 5.95126 113.283 6.71534 115.061 8.21416C116.939 9.76364 118.085 12.0972 118.085 15.4215C118.085 18.9312 116.904 21.5275 115.08 23.2143C113.144 24.9798 110.091 25.8799 106.341 25.8799C104.29 25.8799 102.736 25.7719 101.575 25.6226V6.37264ZM105.097 22.961C105.591 23.0476 106.341 23.057 107.062 23.057C111.639 23.0823 114.362 20.5034 114.362 15.5456C114.38 11.2251 111.929 8.73554 107.501 8.73554C106.396 8.73554 105.608 8.83555 105.097 8.9449V22.961Z" fill="#11C2ED"/>
<path d="M134.276 18.4778C134.276 23.6784 130.68 26.0106 127.116 26.0106C123.184 26.0106 120.142 23.2557 120.142 18.7219C120.142 14.0814 123.153 11.2238 127.354 11.2238C131.501 11.2238 134.276 14.1894 134.276 18.4778ZM123.764 18.6312C123.764 21.3541 125.102 23.4103 127.229 23.4103C129.249 23.4103 130.652 21.4301 130.652 18.5832C130.652 16.3603 129.683 13.8214 127.251 13.8214C124.779 13.8227 123.764 16.2723 123.764 18.6312Z" fill="#11C2ED"/>
<path d="M147.463 25.2652C146.734 25.6159 145.279 25.9959 143.53 25.9959C139.161 25.9959 136.345 23.1503 136.345 18.7605C136.345 14.5241 139.195 11.2318 144.098 11.2318C145.4 11.2318 146.695 11.5198 147.501 11.8772L146.876 14.5668C146.31 14.2868 145.465 14.0134 144.211 14.0134C141.523 14.0134 139.931 16.0083 139.943 18.6005C139.943 21.5021 141.82 23.1663 144.223 23.1663C145.43 23.1663 146.302 22.9009 146.99 22.6076L147.463 25.2652Z" fill="#11C2ED"/>
<path d="M153.61 17.7471H153.668C153.999 17.195 154.402 16.5936 154.767 16.0856L158.167 11.5425H162.401L157.233 17.3177L163.129 25.6906H158.804L154.797 19.4379L153.61 20.8727V25.6919H150.088V5.05783H153.61V17.7471Z" fill="#11C2ED"/>
<path d="M166.941 19.6059C167.034 22.1702 168.989 23.2903 171.246 23.2903C172.867 23.2903 174.027 23.0316 175.092 22.6343L175.614 25.0972C174.42 25.6105 172.766 25.9946 170.743 25.9946C166.217 25.9946 163.567 23.157 163.567 18.8219C163.567 14.9175 165.901 11.2224 170.384 11.2224C174.915 11.2224 176.389 15.0042 176.389 18.1031C176.389 18.7685 176.332 19.3006 176.264 19.6059H166.941ZM173.07 17.1137C173.086 15.8029 172.524 13.6667 170.163 13.6667C167.994 13.6667 167.092 15.6669 166.936 17.1137H173.07Z" fill="#11C2ED"/>
<path d="M179.229 16.0923C179.229 14.1974 179.189 12.8039 179.115 11.5438H182.166L182.296 14.2321H182.396C183.083 12.2399 184.708 11.2238 186.211 11.2238C186.555 11.2238 186.756 11.2371 187.039 11.3011V14.6695C186.738 14.6055 186.43 14.5681 186.005 14.5681C184.326 14.5681 183.161 15.6536 182.845 17.2751C182.786 17.5911 182.755 17.9685 182.755 18.3538V25.6906H179.228V16.0923H179.229Z" fill="#11C2ED"/>
<path d="M39.4898 31.8525H37.744V36.7383H36.7784V31.8525H35.0483V31.0564H39.4885V31.8525H39.4898Z" fill="#6D787B"/>
<path d="M46.4417 36.7383H45.4722V34.2167H42.9697V36.7383H41.9976V31.0564H42.9697V33.422H45.4722V31.0564H46.4417V36.7383Z" fill="#6D787B"/>
<path d="M52.6343 34.2021H50.3354V35.9503H53.0231V36.7383H49.3633V31.0564H52.9969V31.8525H50.3367V33.422H52.6356V34.2021H52.6343Z" fill="#6D787B"/>
<path d="M63.5902 34.8888C63.5337 35.4955 63.313 35.9676 62.9294 36.3076C62.5445 36.6476 62.0335 36.817 61.395 36.817C60.9484 36.817 60.5556 36.7103 60.2167 36.4956C59.8765 36.2809 59.615 35.9756 59.4298 35.5809C59.2459 35.1862 59.1487 34.7261 59.1408 34.2034V33.6727C59.1408 33.1366 59.2341 32.6646 59.4219 32.2565C59.6085 31.8485 59.8778 31.5338 60.2272 31.3124C60.5766 31.0911 60.9812 30.9804 61.4397 30.9804C62.0571 30.9804 62.555 31.1498 62.932 31.4898C63.309 31.8298 63.5284 32.3099 63.5888 32.9313H62.6194C62.5734 32.5232 62.4565 32.2285 62.2673 32.0472C62.0795 31.8658 61.8023 31.7752 61.4384 31.7752C61.0154 31.7752 60.6909 31.9325 60.4637 32.2459C60.2364 32.5592 60.1208 33.0206 60.1155 33.6273V34.1314C60.1155 34.7461 60.2233 35.2155 60.44 35.5382C60.6568 35.8609 60.9734 36.0222 61.3911 36.0222C61.7734 36.0222 62.0598 35.9356 62.2529 35.7609C62.4447 35.5862 62.5668 35.2968 62.6181 34.8901H63.5902V34.8888Z" fill="#6D787B"/>
<path d="M68.2878 34.5528H67.204V36.7383H66.2319V31.0564H68.2011C68.8474 31.0564 69.3453 31.2031 69.6974 31.4978C70.0481 31.7925 70.2241 32.2179 70.2241 32.7753C70.2241 33.1553 70.1335 33.474 69.9535 33.73C69.7722 33.9861 69.5213 34.1834 69.1982 34.3221L70.4553 36.6877V36.7383H69.4136L68.2878 34.5528ZM67.204 33.7567H68.2037C68.5321 33.7567 68.7883 33.6727 68.9722 33.5047C69.1561 33.3367 69.2494 33.1073 69.2494 32.8153C69.2494 32.5112 69.164 32.2752 68.9932 32.1085C68.8225 31.9418 68.5689 31.8565 68.23 31.8512H67.204V33.7567Z" fill="#6D787B"/>
<path d="M77.3849 34.0461C77.3849 34.6035 77.2903 35.0915 77.0998 35.5115C76.9106 35.9316 76.6387 36.2543 76.2866 36.4796C75.9346 36.705 75.5287 36.817 75.0702 36.817C74.617 36.817 74.2124 36.705 73.8577 36.4796C73.503 36.2543 73.2285 35.9343 73.0353 35.5169C72.8422 35.1008 72.7437 34.6208 72.7411 34.0767V33.7567C72.7411 33.202 72.8383 32.7139 73.0314 32.2899C73.2245 31.8658 73.4978 31.5418 73.8498 31.3165C74.2019 31.0911 74.6065 30.9791 75.0623 30.9791C75.5182 30.9791 75.9228 31.0911 76.2748 31.3125C76.6269 31.5352 76.9001 31.8552 77.0919 32.2726C77.2837 32.6899 77.3809 33.1753 77.3836 33.73V34.0461H77.3849ZM76.4114 33.7487C76.4114 33.1193 76.2945 32.6366 76.0594 32.3006C75.8242 31.9645 75.4919 31.7965 75.061 31.7965C74.6406 31.7965 74.3122 31.9645 74.0745 32.2979C73.8367 32.6326 73.7158 33.1046 73.7106 33.7167V34.0447C73.7106 34.6688 73.8301 35.1515 74.0705 35.4929C74.3096 35.8342 74.6433 36.0036 75.0689 36.0036C75.4998 36.0036 75.8308 35.8369 76.0633 35.5035C76.2959 35.1702 76.4114 34.6835 76.4114 34.0434V33.7487Z" fill="#6D787B"/>
<path d="M83.0507 35.2755C83.0507 35.0262 82.964 34.8328 82.7906 34.6981C82.6172 34.5635 82.3059 34.4261 81.854 34.2888C81.4034 34.1514 81.0434 33.9981 80.7768 33.8287C80.2671 33.5033 80.0122 33.0793 80.0122 32.5566C80.0122 32.0992 80.1961 31.7218 80.5639 31.4245C80.9318 31.1284 81.4086 30.9791 81.9958 30.9791C82.386 30.9791 82.7328 31.0524 83.0376 31.1978C83.3423 31.3431 83.5827 31.5512 83.7561 31.8205C83.9309 32.0899 84.0176 32.3886 84.0176 32.7166H83.0481C83.0481 32.4206 82.9561 32.1885 82.7735 32.0205C82.5896 31.8525 82.3282 31.7685 81.9866 31.7685C81.6687 31.7685 81.4218 31.8378 81.247 31.9752C81.071 32.1139 80.9843 32.3059 80.9843 32.5526C80.9843 32.7606 81.0789 32.9353 81.2694 33.074C81.4585 33.2127 81.7712 33.3487 82.2073 33.4793C82.6435 33.61 82.9929 33.7607 83.2569 33.9287C83.521 34.0967 83.7141 34.2888 83.8376 34.5061C83.9611 34.7235 84.0215 34.9782 84.0215 35.2689C84.0215 35.7422 83.8428 36.1196 83.4855 36.3983C83.1282 36.6783 82.6422 36.8183 82.03 36.8183C81.6254 36.8183 81.2523 36.7423 80.9134 36.5903C80.5731 36.4383 80.3091 36.2276 80.1212 35.9596C79.9334 35.6916 79.8388 35.3795 79.8388 35.0235H80.8109C80.8109 35.3462 80.916 35.5956 81.1262 35.7729C81.3364 35.9503 81.6372 36.0383 82.03 36.0383C82.3689 36.0383 82.6224 35.9689 82.7932 35.8302C82.9653 35.6889 83.0507 35.5049 83.0507 35.2755Z" fill="#6D787B"/>
<path d="M89.5743 35.2755C89.5743 35.0262 89.4876 34.8328 89.3142 34.6981C89.1408 34.5635 88.8295 34.4261 88.3776 34.2888C87.927 34.1514 87.5671 33.9981 87.3004 33.8287C86.7907 33.5033 86.5358 33.0793 86.5358 32.5566C86.5358 32.0992 86.7197 31.7218 87.0876 31.4245C87.4554 31.1284 87.9323 30.9791 88.5195 30.9791C88.9096 30.9791 89.2564 31.0524 89.5612 31.1978C89.866 31.3431 90.1064 31.5512 90.2798 31.8205C90.4545 32.0899 90.5412 32.3886 90.5412 32.7166H89.5717C89.5717 32.4206 89.4797 32.1885 89.2971 32.0205C89.1132 31.8525 88.8518 31.7685 88.5103 31.7685C88.1924 31.7685 87.9454 31.8378 87.7707 31.9752C87.5946 32.1139 87.5079 32.3059 87.5079 32.5526C87.5079 32.7606 87.6025 32.9353 87.793 33.074C87.9822 33.2127 88.2948 33.3487 88.731 33.4793C89.1671 33.61 89.5165 33.7607 89.7806 33.9287C90.0446 34.0967 90.2377 34.2888 90.3612 34.5061C90.4847 34.7235 90.5451 34.9782 90.5451 35.2689C90.5451 35.7422 90.3665 36.1196 90.0091 36.3983C89.6518 36.6783 89.1658 36.8183 88.5536 36.8183C88.149 36.8183 87.7759 36.7423 87.437 36.5903C87.0968 36.4383 86.8327 36.2276 86.6449 35.9596C86.457 35.6916 86.3624 35.3795 86.3624 35.0235H87.3345C87.3345 35.3462 87.4396 35.5956 87.6498 35.7729C87.86 35.9503 88.1608 36.0383 88.5536 36.0383C88.8925 36.0383 89.1461 35.9689 89.3168 35.8302C89.4889 35.6889 89.5743 35.5049 89.5743 35.2755Z" fill="#6D787B"/>
<path d="M96.9058 36.7383V31.0564H98.5597C99.0537 31.0564 99.4937 31.1684 99.8773 31.3925C100.261 31.6165 100.558 31.9338 100.767 32.3446C100.977 32.7553 101.082 33.226 101.082 33.758V34.0434C101.082 34.5821 100.977 35.0555 100.764 35.4635C100.553 35.8729 100.252 36.1876 99.8602 36.4076C99.4688 36.629 99.0208 36.7397 98.5164 36.7397H96.9058V36.7383ZM97.8779 31.8525V35.9503H98.5124C99.0221 35.9503 99.4136 35.7889 99.6868 35.4649C99.9601 35.1408 100.099 34.6755 100.105 34.0701V33.754C100.105 33.138 99.9719 32.6659 99.7092 32.3406C99.4451 32.0152 99.0615 31.8525 98.5597 31.8525H97.8779Z" fill="#6D787B"/>
<path d="M108.289 34.0461C108.289 34.6035 108.194 35.0915 108.004 35.5115C107.814 35.9316 107.543 36.2543 107.19 36.4796C106.838 36.705 106.432 36.817 105.974 36.817C105.521 36.817 105.116 36.705 104.762 36.4796C104.407 36.2543 104.132 35.9343 103.939 35.5169C103.746 35.1008 103.648 34.6208 103.645 34.0767V33.7567C103.645 33.202 103.742 32.7139 103.935 32.2899C104.128 31.8658 104.402 31.5418 104.755 31.3165C105.107 31.0911 105.512 30.9791 105.967 30.9791C106.423 30.9791 106.828 31.0911 107.18 31.3125C107.532 31.5352 107.805 31.8552 107.997 32.2726C108.189 32.6899 108.287 33.1753 108.289 33.73V34.0461ZM107.317 33.7487C107.317 33.1193 107.2 32.6366 106.965 32.3006C106.731 31.9645 106.397 31.7965 105.967 31.7965C105.547 31.7965 105.219 31.9645 104.981 32.2979C104.744 32.6326 104.624 33.1046 104.618 33.7167V34.0447C104.618 34.6688 104.738 35.1515 104.978 35.4929C105.217 35.8342 105.551 36.0036 105.975 36.0036C106.406 36.0036 106.737 35.8369 106.97 35.5035C107.201 35.1702 107.318 34.6835 107.318 34.0434V33.7487H107.317Z" fill="#6D787B"/>
<path d="M115.301 34.8888C115.245 35.4955 115.024 35.9676 114.64 36.3076C114.255 36.6476 113.744 36.817 113.106 36.817C112.659 36.817 112.266 36.7103 111.928 36.4956C111.589 36.2809 111.326 35.9756 111.142 35.5809C110.958 35.1862 110.861 34.7261 110.853 34.2034V33.6727C110.853 33.1366 110.946 32.6646 111.134 32.2565C111.321 31.8485 111.59 31.5338 111.939 31.3124C112.289 31.0911 112.693 30.9804 113.152 30.9804C113.769 30.9804 114.267 31.1498 114.644 31.4898C115.021 31.8298 115.241 32.3099 115.301 32.9313H114.332C114.286 32.5232 114.169 32.2285 113.979 32.0472C113.792 31.8658 113.514 31.7752 113.151 31.7752C112.728 31.7752 112.403 31.9325 112.176 32.2459C111.949 32.5592 111.833 33.0206 111.828 33.6273V34.1314C111.828 34.7461 111.935 35.2155 112.152 35.5382C112.369 35.8609 112.686 36.0222 113.103 36.0222C113.486 36.0222 113.772 35.9356 113.965 35.7609C114.157 35.5862 114.279 35.2968 114.33 34.8901H115.301V34.8888Z" fill="#6D787B"/>
<path d="M119.549 34.2834L118.915 34.9662V36.7383H117.943V31.0564H118.915V33.722L119.453 33.0473L121.092 31.0564H122.269L120.189 33.574L122.388 36.7397H121.235L119.549 34.2834Z" fill="#6D787B"/>
<path d="M125.704 36.7383H124.734V31.0564H125.704V36.7383Z" fill="#6D787B"/>
<path d="M133.113 36.7383H132.141L129.645 32.7073V36.7383H128.673V31.0564H129.645L132.147 35.1035V31.0564H133.113V36.7383Z" fill="#6D787B"/>
<path d="M140.325 36.0009C140.123 36.269 139.841 36.4716 139.483 36.6103C139.124 36.749 138.717 36.817 138.26 36.817C137.791 36.817 137.376 36.709 137.014 36.493C136.653 36.277 136.375 35.9676 136.178 35.5662C135.982 35.1648 135.879 34.6955 135.872 34.1594V33.714C135.872 32.8553 136.074 32.1845 136.478 31.7018C136.883 31.2191 137.449 30.9778 138.174 30.9778C138.797 30.9778 139.292 31.1351 139.659 31.4485C140.025 31.7618 140.246 32.2125 140.32 32.8006H139.366C139.258 32.1165 138.868 31.7738 138.193 31.7738C137.757 31.7738 137.426 31.9325 137.198 32.2512C136.972 32.5699 136.854 33.0366 136.846 33.6527V34.0901C136.846 34.7035 136.974 35.1795 137.229 35.5195C137.483 35.8582 137.838 36.0289 138.291 36.0289C138.789 36.0289 139.143 35.9142 139.353 35.6849V34.5728H138.199V33.8234H140.322V36.0009H140.325Z" fill="#6D787B"/>
<path d="M148.158 31.0564L149.773 35.4115L151.383 31.0564H152.64V36.7383H151.671V34.8648L151.767 32.3592L150.113 36.7383H149.417L147.767 32.3632L147.863 34.8648V36.7383H146.893V31.0564H148.158Z" fill="#6D787B"/>
<path d="M158.766 35.4155H156.597L156.144 36.7383H155.132L157.247 31.0564H158.12L160.239 36.7383H159.223L158.766 35.4155ZM156.87 34.6195H158.493L157.681 32.2619L156.87 34.6195Z" fill="#6D787B"/>
<path d="M165.571 35.2755C165.571 35.0262 165.484 34.8328 165.311 34.6981C165.139 34.5635 164.826 34.4261 164.374 34.2888C163.923 34.1514 163.565 33.9981 163.297 33.8287C162.787 33.5033 162.532 33.0793 162.532 32.5566C162.532 32.0992 162.716 31.7218 163.084 31.4245C163.452 31.1284 163.929 30.9791 164.516 30.9791C164.906 30.9791 165.253 31.0524 165.558 31.1978C165.862 31.3431 166.103 31.5512 166.276 31.8205C166.451 32.0899 166.538 32.3886 166.538 32.7166H165.568C165.568 32.4206 165.476 32.1885 165.294 32.0205C165.111 31.8525 164.848 31.7685 164.508 31.7685C164.19 31.7685 163.943 31.8378 163.768 31.9752C163.592 32.1139 163.504 32.3059 163.504 32.5526C163.504 32.7606 163.599 32.9353 163.789 33.074C163.98 33.2127 164.291 33.3487 164.727 33.4793C165.163 33.61 165.513 33.7607 165.777 33.9287C166.041 34.0967 166.234 34.2888 166.358 34.5061C166.481 34.7235 166.542 34.9782 166.542 35.2689C166.542 35.7422 166.363 36.1196 166.006 36.3983C165.648 36.6783 165.162 36.8183 164.55 36.8183C164.145 36.8183 163.772 36.7423 163.433 36.5903C163.094 36.4383 162.83 36.2276 162.641 35.9596C162.453 35.6916 162.359 35.3795 162.359 35.0235H163.331C163.331 35.3462 163.436 35.5956 163.646 35.7729C163.856 35.9503 164.157 36.0383 164.55 36.0383C164.889 36.0383 165.142 35.9689 165.313 35.8302C165.485 35.6889 165.571 35.5049 165.571 35.2755Z" fill="#6D787B"/>
<path d="M173.214 31.8525H171.468V36.7383H170.502V31.8525H168.772V31.0564H173.212V31.8525H173.214Z" fill="#6D787B"/>
<path d="M178.991 34.2021H176.692V35.9503H179.38V36.7383H175.72V31.0564H179.354V31.8525H176.693V33.422H178.992V34.2021H178.991Z" fill="#6D787B"/>
<path d="M184 34.5528H182.916V36.7383H181.944V31.0564H183.912C184.558 31.0564 185.056 31.2031 185.408 31.4978C185.759 31.7925 185.935 32.2179 185.935 32.7753C185.935 33.1553 185.844 33.474 185.664 33.73C185.484 33.9861 185.232 34.1834 184.909 34.3221L186.166 36.6877V36.7383H185.125L184 34.5528ZM182.916 33.7567H183.916C184.244 33.7567 184.501 33.6727 184.684 33.5047C184.868 33.3367 184.962 33.1073 184.962 32.8153C184.962 32.5112 184.876 32.2752 184.705 32.1085C184.535 31.9418 184.28 31.8565 183.942 31.8512H182.916V33.7567Z" fill="#6D787B"/>
</svg>
